<svg xmlns="http://www.w3.org/2000/svg" width="900" height="380" viewBox="0 0 900 380">
<rect width="100%" height="100%" fill="#f8fafc"/>
<defs><marker id="arrow" markerWidth="8" markerHeight="8" refX="4" refY="4" orient="auto"><path d="M0,0 L8,4 L0,8 Z" fill="#111827"/></marker></defs>
<text x="60" y="36" font-family="Arial, sans-serif" font-size="18" fill="#111827">Side section: 50 mm male-male C-mount tube into top-open reflector holder</text>
<line x1="45" y1="270" x2="840" y2="270" stroke="#94a3b8" stroke-width="1"/>
<rect x="60" y="68.4" width="120.0" height="201.6" fill="#bfdbfe" stroke="#111827" stroke-width="2"/>
<rect x="180.0" y="42.80000000000001" width="160.0" height="227.2" fill="#93c5fd" stroke="#111827" stroke-width="2"/>
<rect x="340.0" y="68.4" width="120.0" height="201.6" fill="#bfdbfe" stroke="#111827" stroke-width="2"/>
<rect x="340.0" y="-2.0" width="192.0" height="272.0" fill="#bbf7d0" stroke="#111827" stroke-width="2"/>
<rect x="532.0" y="74.80000000000001" width="195.2" height="195.2" fill="#dcfce7" stroke="#111827" stroke-width="2"/>
<rect x="532.0" y="74.80000000000001" width="163.2" height="163.2" fill="#f8fafc" stroke="#16a34a" stroke-width="2" stroke-dasharray="7 6"/>
<rect x="695.2" y="74.80000000000001" width="32.0" height="195.2" fill="#86efac" stroke="#111827" stroke-width="2"/>
<line x1="60" y1="156.4" x2="820" y2="156.4" stroke="#ef4444" stroke-width="1.5" stroke-dasharray="8 6"/>
<text x="76" y="96" font-family="Arial, sans-serif" font-size="13" fill="#1e40af">left 15 mm thread</text>
<text x="204" y="96" font-family="Arial, sans-serif" font-size="12" fill="#1e40af">body 20 mm</text>
<text x="356" y="96" font-family="Arial, sans-serif" font-size="13" fill="#1e40af">right 15 mm thread</text>
<text x="546.0" y="80" font-family="Arial, sans-serif" font-size="13" fill="#166534">20.4 x 20.4 x 20.4 mm reflector pocket, top open</text>
<line x1="60" y1="298" x2="460.0" y2="298" stroke="#111827" stroke-width="1.6"/>
<line x1="60" y1="298" x2="460.0" y2="298" stroke="#111827" stroke-width="1.6" marker-start="url(#arrow)" marker-end="url(#arrow)"/>
<text x="210" y="322" font-family="Arial, sans-serif" font-size="14" fill="#111827">tube total 50 mm</text>
<line x1="60" y1="328" x2="180.0" y2="328" stroke="#111827" stroke-width="1.6"/>
<line x1="60" y1="328" x2="180.0" y2="328" stroke="#111827" stroke-width="1.6" marker-start="url(#arrow)" marker-end="url(#arrow)"/>
<text x="105" y="352" font-family="Arial, sans-serif" font-size="14" fill="#111827">15 mm</text>
<line x1="340.0" y1="328" x2="460.0" y2="328" stroke="#111827" stroke-width="1.6"/>
<line x1="340.0" y1="328" x2="460.0" y2="328" stroke="#111827" stroke-width="1.6" marker-start="url(#arrow)" marker-end="url(#arrow)"/>
<text x="375" y="352" font-family="Arial, sans-serif" font-size="14" fill="#111827">15 mm</text>
</svg>