<svg xmlns="http://www.w3.org/2000/svg" width="980" height="520" viewBox="0 0 980 520">
<rect width="100%" height="100%" fill="#f8fafc"/>
<defs><marker id="arrow" markerWidth="8" markerHeight="8" refX="4" refY="4" orient="auto"><path d="M0,0 L8,4 L0,8 Z" fill="#111827"/></marker></defs>
<text x="50" y="40" font-family="Arial, sans-serif" font-size="18" fill="#111827">Decomposition / Boolean recipe for editable CAD</text>
<text x="60" y="82" font-family="Arial, sans-serif" font-size="15" fill="#1e40af">Tube: base + left male thread + right male thread</text>
<rect x="90" y="135" width="320" height="60" fill="#bfdbfe" stroke="#111827" stroke-width="2"/>
<rect x="90" y="120" width="70" height="90" fill="#dbeafe" stroke="#1e40af" stroke-width="2" stroke-dasharray="8 5"/>
<rect x="340" y="120" width="70" height="90" fill="#dbeafe" stroke="#1e40af" stroke-width="2" stroke-dasharray="8 5"/>
<text x="185" y="170" font-family="Arial, sans-serif" font-size="14" fill="#1e3a8a">tube_base_no_threads</text>
<text x="102" y="112" font-family="Arial, sans-serif" font-size="12" fill="#1e3a8a">left_male_thread</text>
<text x="330" y="112" font-family="Arial, sans-serif" font-size="12" fill="#1e3a8a">right_male_thread</text>
<text x="60" y="270" font-family="Arial, sans-serif" font-size="15" fill="#166534">Holder: smooth-bore base - female thread cutter = threaded holder</text>
<rect x="90" y="325" width="190" height="74" fill="#dcfce7" stroke="#111827" stroke-width="2"/>
<rect x="60" y="300" width="110" height="124" fill="#bbf7d0" stroke="#111827" stroke-width="2"/>
<rect x="390" y="310" width="112" height="104" fill="#fee2e2" stroke="#991b1b" stroke-width="2" stroke-dasharray="8 5"/>
<text x="98" y="362" font-family="Arial, sans-serif" font-size="13" fill="#14532d">holder_smooth_bore_base</text>
<text x="398" y="360" font-family="Arial, sans-serif" font-size="13" fill="#7f1d1d">female_thread_cutter</text>
<text x="320" y="362" font-family="Arial, sans-serif" font-size="28" fill="#111827">-</text>
<text x="535" y="362" font-family="Arial, sans-serif" font-size="28" fill="#111827">=</text>
<rect x="610" y="325" width="190" height="74" fill="#bbf7d0" stroke="#111827" stroke-width="2"/>
<rect x="580" y="300" width="110" height="124" fill="#86efac" stroke="#111827" stroke-width="2"/>
<text x="608" y="362" font-family="Arial, sans-serif" font-size="13" fill="#14532d">top_open_reflector_holder</text>
<text x="58" y="468" font-family="Arial, sans-serif" font-size="13" fill="#334155">STEP assemblies keep same-coordinate Boolean parts; exploded STEP files offset parts for inspection.</text>
</svg>